<svg width="170" height="112" viewBox="0 0 170 112" fill="none" xmlns="http://www.w3.org/2000/svg">
<path d="M118.339 65.2884C123.605 63.7399 124.563 74.2444 119.739 74.972C115.187 75.6584 114.284 66.4827 118.339 65.2884Z" fill="white"/>
<path d="M130.944 65.8274C135.584 65.001 135.244 73.9378 131.935 74.3249C128.317 74.7477 127.131 67.1892 130.944 65.8274Z" fill="white"/>
<path d="M124.086 83.9727C124.413 84.0633 124.772 84.0852 125.195 84.0193C124.827 84.0111 124.459 83.9974 124.086 83.9727Z" fill="white"/>
<path d="M79.2111 63.5661C53.6389 69.318 22.9105 58.0695 5.4213 50.0222C-1.04451 47.046 -1.82699 38.1696 4.01557 34.1034L10.7312 29.4277C10.7312 29.4277 11.813 33.5214 14.4487 35.9237L19.1436 39.7813C28.0338 46.4502 37.9562 51.0518 48.3098 54.6073C54.4488 56.7159 60.7362 58.4566 67.051 60.0408L79.2111 63.5688V63.5661Z" fill="white"/>
<path d="M169.461 10.5111C169.461 10.5111 162.092 8.83082 149.133 21.3945H149.13C143.123 26.9653 138.266 33.8759 134.606 41.0912C132.209 45.8218 129.156 55.2473 125.491 59.5331C125.167 58.8275 124.829 58.1713 124.478 57.5893C124.055 56.8864 123.613 56.2906 123.168 55.8513C118.083 50.8242 111.209 52.801 104.836 55.6537C104.787 55.5219 104.745 55.3928 104.707 55.2638C106.033 49.2263 107.17 43.1614 107.829 37.014C108.123 34.2767 108.026 31.5257 108.392 28.813C110.327 5.20393 125.422 10.0251 125.422 10.0251C124.346 11.7658 123.157 13.1716 122.174 15.077C117.507 24.1181 117.446 34.856 115.879 44.6796C120.044 38.3731 120.48 30.6608 123.094 23.731C131.918 -4.17492 143.057 5.46476 143.057 5.46476C142.717 5.76403 142.384 6.06878 142.058 6.37903C133.758 14.2561 129.73 25.2163 126.924 36.0421C126.422 37.975 125.947 40.0012 125.584 41.9615C128.352 35.3118 130.795 28.3875 134.686 22.2594C137.217 18.2701 140.572 14.9946 143.933 11.6313C156.455 -0.90495 161.271 5.39337 169.461 10.5111Z" fill="white"/>
<path d="M50.3526 81.8313C49.9106 81.7022 49.474 81.5732 49.043 81.4414C49.161 81.4606 49.2791 81.4798 49.3971 81.5018H49.4026C49.7184 81.6144 50.0341 81.7242 50.3526 81.8313Z" fill="white"/>
<path d="M141.645 59.7711C138.779 55.3727 133.038 53.7666 129.507 60.172C129.304 60.5399 129.106 60.9352 128.92 61.3581C129.288 60.9105 129.661 60.5097 130.034 60.1555C133.373 57.0009 136.948 57.377 139.114 59.8562C140.8 61.7781 141.634 64.9685 140.855 68.7574C139.789 73.9218 131.954 80.7939 127.437 83.1771C126.517 83.663 125.801 83.9293 125.205 84.02H125.199C124.777 84.0858 124.417 84.0639 124.09 83.9733H124.087C122.767 83.6109 121.957 82.131 119.769 80.6484C116.787 78.6249 112.07 76.1649 108.905 73.4358C108.841 73.3809 108.775 73.326 108.715 73.2683C108.641 73.2052 108.57 73.1393 108.498 73.0734C108.427 73.0102 108.355 72.9443 108.287 72.8812C107.587 72.2195 106.985 71.5469 106.53 70.8605C104.174 67.3104 104.02 63.7632 106.326 61.0753C106.365 61.0286 106.409 60.9792 106.45 60.9325C107.142 60.1637 108.04 59.4664 109.152 58.8651C113.487 56.5204 118.245 57.5472 121.693 60.4301C122.712 61.2757 123.615 62.2861 124.359 63.42C124.733 63.9828 125.065 64.5786 125.35 65.1991C128.162 71.275 124.579 71.1323 125.09 75.2863C125.573 79.218 128.206 78.0758 128.39 74.2183C128.522 71.4508 127.259 66.1271 125.501 62.2806C125.177 61.575 124.84 60.9188 124.488 60.3367C124.066 59.6338 123.623 59.0381 123.179 58.5988C118.094 53.5716 111.219 55.5484 104.847 58.4011C102.831 59.3044 100.866 60.2928 99.0232 61.1769C98.378 61.4871 97.7465 61.7836 97.1343 62.0582C97.0245 62.1076 96.8954 62.0856 96.8103 62.0005C95.012 60.2681 93.1587 58.64 91.2588 57.1079C84.4223 51.4795 64.3769 28.9988 63.4407 27.9473L63.4133 27.9171L63.4078 27.9088L58.0292 21.443L58.01 21.4073C55.2095 16.7234 51.8325 11.0593 54.0426 5.69173C54.9267 3.54744 56.7388 2.19937 58.0896 0.480645C58.2461 0.282964 58.0978 -0.00806563 57.848 0.000171061L6.00899 1.62005L5.92114 1.63653C5.81955 1.67222 5.72345 1.71615 5.63834 1.76008C5.53127 1.81774 5.40771 1.79852 5.31711 1.72164C5.21553 1.63653 5.10021 1.60084 4.95195 1.68046C4.99313 1.90834 5.03432 2.13348 5.07825 2.36136C5.25945 3.31132 5.45439 4.25305 5.67129 5.1838C6.89306 10.4855 8.6969 15.4769 11.5138 20.257C19.0037 32.9634 32.7041 42.6745 45.8554 48.8328C58.0814 54.5628 71.6774 57.539 83.088 64.8971C83.3021 65.0371 83.2472 65.3693 83.0001 65.4352C81.081 65.9514 79.0163 66.1875 77.0615 66.484C61.4502 68.8507 46.1629 69.6195 31.3478 63.2827C31.3423 63.28 31.3368 63.28 31.3313 63.2772L23.5065 59.4279C23.5065 59.4279 23.5065 59.4279 23.5092 59.4334C23.5367 59.5844 24.0885 62.5085 24.5333 66.1848C24.8243 68.5981 26.1587 70.7699 28.1959 72.0932C31.9079 74.5093 38.7883 78.3229 49.0375 81.4391L49.0622 81.4446C49.1802 81.4638 49.2956 81.483 49.4109 81.505H49.4164C49.7321 81.6176 50.0478 81.7274 50.3663 81.8345H50.3691C62.8669 86.0297 77.1685 85.6755 90.1303 81.4117C90.4433 81.3101 90.663 81.7137 90.4076 81.9196L87.2942 84.44L87.2393 84.4785C77.2674 90.8701 64.8821 91.5867 53.6363 88.8576C53.6363 88.8576 53.6336 88.8576 53.6253 88.8549C53.5539 88.8412 53.1668 88.7643 52.5381 88.6435H52.5353C48.708 87.9104 35.8643 85.508 29.6346 85.1292C15.0007 83.1194 4.08984 95.7188 4.08984 95.7188C12.3018 91.8393 21.8454 89.9119 28.5583 88.9702C19.0559 92.6218 13.4385 101.108 13.4385 101.108C19.4156 97.2755 26.3564 94.519 32.2209 92.641C21.8344 99.1178 18.9516 112 18.9516 112C23.512 105.817 29.5769 100.414 34.6425 96.4683C39.7218 92.5147 46.7642 92.2704 52.0878 95.8863C54.3254 97.4073 56.1897 98.9833 57.3291 100.54C61.689 106.503 70.409 107.805 77.7451 106.929C79.3897 106.734 80.9657 106.427 82.4043 106.039C82.602 105.987 82.7997 105.932 82.9919 105.875C92.9967 103.052 116.079 95.9549 117.372 94.8265C118.283 94.033 118.426 92.6245 119.415 92.1194C120.908 91.584 124.593 87.0373 127.025 84.8848H127.028L127.042 84.8793C127.042 84.8793 139.957 80.9696 142.06 70.7122C142.065 70.6875 142.074 70.6628 142.087 70.6381C144.18 66.8053 143.54 62.6787 141.643 59.7711H141.645ZM112.449 91.6416C110.384 89.6319 107.587 91.411 104.756 92.2264C104.388 92.3308 104.221 91.7844 104.583 91.6609L111.455 89.3244C111.543 89.2942 111.636 89.3052 111.713 89.3546L112.518 89.879C112.584 89.9202 112.627 89.9861 112.647 90.0629L112.938 91.3616C113.001 91.6444 112.658 91.8448 112.449 91.6416Z" fill="white"/>
</svg>
