<svg width="1440" height="871" viewBox="0 0 1440 871" fill="none" xmlns="http://www.w3.org/2000/svg">
<path d="M1117.34 141.571L1123.23 141.646L1119.51 160.971C1122.82 161.574 1124.97 161.797 1125.84 158.032C1126.67 154.46 1127.86 146.363 1128.17 142.635C1128.28 141.326 1127.15 139.019 1127.78 138.007C1132.88 135.216 1134.99 139.696 1138.09 141.281C1146.92 145.805 1157.6 142.933 1164.84 136.734C1170.48 131.905 1173.26 124.114 1180.54 121.174L1180.14 119.299C1169.3 121.539 1159.09 115.75 1149.64 111.381C1145.98 113.882 1141.2 113.108 1137.42 115.273C1134.96 116.687 1132.76 120.423 1129.94 121.546C1130.22 118.585 1131.31 114.775 1133.01 112.341C1133.96 110.994 1138.55 107.683 1138.79 106.961C1139.85 103.769 1134.88 104.141 1133.13 105.399C1125.6 110.823 1125.28 121.755 1123.46 129.591C1122.3 134.658 1116.95 136.05 1117.34 141.571Z" fill="#4C171C"/>
<path d="M1107.32 45.6897C1115.52 44.0898 1123.27 40.4509 1131.77 40.384C1149.14 40.2351 1162.59 45.2878 1177 54.5896C1196.22 67.0093 1209.63 92.5258 1213.17 114.567C1213.65 117.551 1213.94 132.776 1214.84 133.349C1218.83 135.85 1220.27 126.377 1220.61 124.055C1223.8 102.401 1220.75 82.1897 1209.78 63.6755C1193.32 35.8596 1164.99 21.4828 1131.87 27.8676C1126.49 28.9019 1113.05 33.8728 1109.27 37.6381C1109.06 37.839 1106.27 42.1625 1106.25 42.4452C1106.18 43.2638 1106.5 45.5632 1107.32 45.6897Z" fill="#4C171C"/>
<path d="M1098.68 245.066C1100.97 245.081 1101.95 241.256 1103.39 240.11C1113.04 232.46 1130.6 229.432 1142 224.922C1159.96 217.823 1187.23 198.379 1199.47 183.287C1204.55 177.022 1208.33 171.91 1208.77 163.478C1208.91 160.777 1205.97 160.085 1204.29 161.306C1203.54 161.856 1203.66 163.709 1203.16 164.632C1202.23 166.336 1200.71 168.814 1199.62 170.414C1189.29 185.617 1168.29 202.762 1152.01 211.706C1140.14 218.217 1127.21 222.027 1115.29 227.824C1108.73 231.024 1097.96 236.575 1098.68 245.066Z" fill="#4C171C"/>
<path d="M1069.95 192.703C1075.31 202.964 1078.74 214.677 1086.15 224.515C1086.72 225.274 1090.49 229.225 1091.22 228.697C1091.96 223.577 1093.83 219.142 1096.03 214.528C1098.71 208.903 1103.28 203.173 1105.31 199.11C1105.79 198.15 1105.71 196.93 1106.48 195.947C1108.39 193.529 1112.6 192.718 1111.31 188.521C1106.66 187.218 1096.68 199.013 1093.82 198.753C1092.26 198.611 1091.31 192.524 1086.74 194.831C1085.93 195.24 1083.85 199.571 1081.54 198.581C1078.5 197.287 1074.4 187.085 1070.74 187.018C1067.64 187.739 1068.93 190.753 1069.95 192.703Z" fill="#4C171C"/>
<path d="M1154.13 578.152C1155.15 579.142 1156.2 580.295 1157.26 581.561C1157.32 581.62 1157.41 581.724 1157.46 581.776C1157.74 582.037 1158 582.29 1158.23 582.52C1156.17 580.035 1154.57 578.539 1154.13 578.152Z" fill="#4C171C"/>
<path d="M1123.35 521.345C1124.19 528.965 1127.39 537.27 1131.73 545.47C1132.26 544.815 1132.72 544.161 1133.05 543.536C1134.66 538.081 1131.82 534.159 1130.4 529.069C1128.96 526.294 1127.84 523.444 1127.16 520.519C1126.38 517.2 1127.33 512.044 1124.77 509.506C1124.02 508.769 1123.73 507.973 1122.88 509.149C1121.92 510.898 1123.07 518.763 1123.35 521.345Z" fill="#4C171C"/>
<path d="M1335.75 495.062C1336.09 490.039 1336.27 485.187 1336.27 480.395C1336.25 480.93 1336.09 487.062 1335.75 495.062Z" fill="#4C171C"/>
<path d="M1139.65 626.23C1140.02 625.999 1140.39 625.828 1140.75 625.702L1140.81 625.635C1140.38 625.776 1140.01 625.947 1139.69 626.141C1139.67 626.171 1139.67 626.2 1139.65 626.23Z" fill="#4C171C"/>
<path d="M1018.31 113.726C1018.53 114.619 1024.22 117.625 1025.38 118.563C1032.77 124.575 1042.28 136.474 1052.18 137.188C1055.89 137.456 1057.25 135.336 1060.65 135.76C1061.58 136.549 1061.14 143.514 1060.72 144.816C1060.46 145.642 1059.1 145.501 1058.64 146.594C1058.18 147.703 1058.35 149.504 1057.8 150.992C1057 153.113 1053.66 156.424 1056.78 157.853C1062.17 160.316 1063.79 155.606 1065.36 151.111C1068.77 141.348 1069.16 128.549 1065.23 118.898C1061.61 109.99 1054.98 105.667 1048.29 99.736C1045.48 97.2431 1043.89 92.6294 1039.14 94.0135L1039.27 96.871C1040.41 97.3249 1041.54 97.6226 1042.5 98.4709C1044.63 100.354 1048.42 104.141 1050.33 106.27C1050.93 106.954 1054.61 111.292 1054.02 111.865C1049.38 110.958 1043.53 110.705 1038.78 111.136C1034.28 111.545 1034.24 114.291 1027.65 113.316C1025.09 112.937 1019.76 109.462 1018.31 113.726Z" fill="#4C171C"/>
<path d="M1156.02 610.112C1155.44 609.911 1154.82 609.635 1154.15 609.293C1154.77 609.546 1155.4 609.829 1156.02 610.112Z" fill="#4C171C"/>
<path d="M990.394 245.529C990.394 245.529 986.323 250.262 991.837 249.867C994.881 249.652 997.716 248.394 999.219 247.843C1000.31 247.441 1000.69 247.404 999.934 248.387C999.844 248.513 999.725 248.654 999.591 248.818C999.472 248.967 999.331 249.123 999.175 249.294C996.176 252.703 987.559 261.312 992.068 269.468C992.299 269.9 992.582 270.331 992.894 270.763C992.894 270.763 993.073 270.22 993.43 269.416C994.546 266.856 997.381 261.655 1001.53 263.158C1001.71 263.225 1001.9 263.306 1002.09 263.403C1002.5 263.612 1002.82 263.842 1003.04 264.103C1003.84 264.981 1003.68 266.201 1003.27 267.95C1002.93 269.379 1002.42 271.165 1002.11 273.419C1002.11 273.434 1002.11 273.442 1002.11 273.449C1001.41 278.539 1001.76 285.988 1007.44 297.068C1006.87 299.107 1006.32 301.235 1005.78 303.46C1003.72 311.891 1001.94 321.647 1000.57 332.936L1000.12 335.875C999.182 342.141 999.204 348.518 1000.21 354.776L1006.97 397.14L1006.77 402.111L1009.9 400.652C1009.9 400.652 1010.08 400.235 1010.42 399.685C1010.43 399.662 1010.45 399.64 1010.46 399.61C1010.89 398.926 1011.53 398.07 1012.32 397.557C1012.32 397.557 1012.32 397.549 1012.33 397.542C1012.83 397.222 1013.39 397.043 1013.99 397.14C1015.08 397.318 1016.79 397.333 1018.67 400.258C1018.68 400.273 1018.69 400.288 1018.7 400.302C1020.84 403.673 1023.2 410.854 1025.12 426.407L1027.49 445.844L1028 447.384L1029.59 452.139L1029.61 452.199L1029.63 452.124L1032.23 444.475L1032.81 444.564L1035.49 444.958L1036.46 445.1C1036.46 445.1 1051.53 460.176 1052.4 472.015C1052.45 472.588 1052.51 473.161 1052.59 473.734C1054.1 484.956 1061.98 495.604 1064 496.438C1064 496.438 1064.21 496.438 1064.5 496.378C1065.29 496.215 1066.65 495.604 1065.74 493.32C1065.5 492.717 1065.28 492.099 1065.11 491.489C1064.78 490.209 1064.69 488.982 1065.19 488.081C1065.66 487.21 1066.66 486.645 1068.48 486.593C1073.09 486.466 1076.21 497.807 1081.68 507.027C1087.17 516.247 1104.99 556.497 1126.17 550.76C1126.17 550.76 1129.52 548.17 1131.72 545.469C1127.38 537.269 1124.18 528.964 1123.34 521.344C1123.06 518.762 1121.91 510.896 1122.87 509.148C1123.71 507.972 1124.01 508.768 1124.76 509.505C1127.32 512.042 1126.37 517.199 1127.14 520.518C1127.83 523.443 1128.95 526.293 1130.39 529.068C1130.34 528.919 1130.3 528.771 1130.26 528.614C1128.72 522.691 1127.72 517.043 1125.95 511.164C1124.33 506.99 1122.4 498.834 1119.85 495.865C1118.9 494.756 1117.75 495.098 1116.53 495.098C1115.38 499.645 1118.27 502.316 1119.28 506.112C1120.87 512.065 1123.91 526.218 1123.19 531.874C1122.4 538.087 1117.52 536.859 1113.81 533.533C1106.03 526.56 1097.9 511.931 1093.03 502.592C1080.96 479.419 1073.28 454.602 1068.52 428.877C1068 427.553 1065.24 429.837 1065.16 430.15C1064.82 437.256 1064.38 444.542 1065.83 451.514L1064.05 452.72L1062.93 452.34C1057.04 444.824 1050.42 437.718 1045.68 429.391C1034.88 410.445 1012.75 362.909 1013.92 341.106C1014.9 322.875 1017.47 298.348 1023.96 281.196C1027.56 271.693 1034.54 261.335 1041.49 254.087C1043.43 252.07 1046.9 252.085 1045.91 248.453C1045.59 248.111 1042.71 248.573 1039.79 249.198C1034.81 246.861 1029.86 244.577 1025.36 241.354C1013.6 232.916 1006.4 221.56 998.319 209.609C998.23 209.475 998.103 209.267 997.954 208.999C995.789 205.159 994.1 201.059 992.849 196.825C958.448 80.1069 995.722 41.5605 1013.48 30.3464C1015.4 29.1334 1017.08 28.2479 1018.43 27.6079C1018.52 27.5633 1018.62 27.5186 1018.71 27.474C1018.81 27.4293 1018.89 27.3921 1018.98 27.3475C1019.33 27.1912 1019.66 27.0498 1019.96 26.9233C1020.22 26.8117 1020.46 26.715 1020.67 26.6406C1021.16 26.4471 1021.49 26.328 1021.67 26.2759C1021.7 26.2685 1021.72 26.261 1021.74 26.2536C1021.78 26.2387 1021.8 26.2313 1021.8 26.2313C1026.24 24.6686 1032.39 23.1654 1035.88 22.6669C1052.09 20.3749 1074.32 26.8415 1088.4 34.5061C1089.43 35.0716 1092.1 38.9784 1092.39 38.9933C1097.53 36.5971 1102.38 33.5462 1107.42 30.9566C1120.83 24.0658 1133.88 19.2438 1149.66 20.3005C1156.93 20.7842 1173.23 25.0927 1184.21 29.6097C1184.21 29.6097 1184.22 29.6122 1184.23 29.6171C1184.23 29.6171 1184.25 29.6246 1184.26 29.6246C1186.37 30.2794 1188.45 31.2691 1190.49 32.549C1191.5 33.1071 1192.38 33.6578 1193.09 34.1861C1193.2 34.268 1193.36 34.4466 1193.54 34.6773C1194.39 35.3395 1195.24 36.0465 1196.07 36.7981C1216.62 55.1708 1232.04 98.6732 1232.04 98.6732C1232.04 98.6732 1263.03 188.565 1288.79 222.528L1288.83 222.557C1261.94 205.829 1229.84 200.211 1198.24 209.587C1191.21 211.678 1184.46 215.123 1177.31 216.932L1176.06 219.767C1182.43 219.893 1188.66 218.599 1195 218.256C1223.48 216.701 1251.15 218.279 1274.66 235.416C1277.24 237.299 1281.55 240.357 1283.91 242.523C1289.25 247.404 1291.05 256.252 1287.97 262.86C1280.88 278.085 1263.24 266.856 1255.33 258.455C1254.03 257.086 1253.78 253.685 1250.47 254.005C1250.11 256.579 1252.64 258.083 1253.74 260.04C1260.03 271.299 1271.21 287.03 1285.82 286.799C1296.42 286.628 1302.69 279.157 1302.56 268.88C1303.52 267.92 1307.64 271.976 1308.48 272.973C1316.02 281.91 1325.2 301.228 1324.69 312.97C1324.21 323.798 1318.4 332.437 1307.92 335.637C1296.89 338.993 1295.6 334.632 1287.15 332.288C1286.16 332.013 1284.92 331.819 1285.45 333.241C1286.25 335.384 1293.71 343.733 1295.91 345.11C1304.7 350.601 1314.07 351.212 1323.18 346.434C1324.79 345.593 1325.88 343.004 1327.47 344.797C1328.39 345.832 1333.44 358.66 1334.32 361.019C1343.17 384.78 1352.12 408.116 1363.2 431.11C1363.65 432.047 1364.94 434.518 1366.37 437.1C1366.37 437.1 1379.02 473.727 1381.01 479.263C1382.21 483.08 1384.04 486.987 1384.94 490.485C1388.44 504.035 1391.83 521.24 1384.11 533.898C1383.6 534.724 1383.98 535.624 1382.56 535.282C1379.49 531.673 1379.75 526.747 1378.22 522.505C1375.54 515.056 1371.82 507.778 1369.19 500.285C1365.03 488.468 1359.78 464.514 1353.47 454.982C1352.86 454.052 1352.22 453.188 1350.93 453.434L1356.32 472.96C1363.69 488.788 1366.93 506.387 1369.44 523.844C1371.84 540.61 1375.02 560.24 1365.37 575.406C1362.34 580.168 1353.15 587.937 1347.97 589.254C1346.5 589.634 1344.53 588.16 1343.66 590.817L1344.59 602.269C1345.74 604.219 1352.1 603.899 1354.31 603.772C1356.27 603.661 1363.83 602.671 1365.32 602.113L1364.93 627.056V627.042C1361.21 664.256 1378.69 710.281 1396.9 741.944C1403.53 753.471 1413.04 762.921 1419.37 774.537L1417.59 775.616C1412.48 773.652 1406.75 771.911 1401.75 769.834C1367.66 755.696 1325.84 733.23 1298.32 709.187C1265.23 680.292 1228.64 641.999 1204.08 605.781C1204.08 605.781 1204.07 605.767 1204.06 605.744C1203.62 604.933 1196.56 591.888 1195.93 583.472C1197.61 581.939 1198.99 580.138 1199.89 578.107C1200.52 576.686 1201.04 570.532 1202.9 572.958C1203.55 573.813 1203.66 575.19 1205.04 576.619C1208.52 580.228 1214.25 583.428 1219.42 582.758C1221.71 582.468 1224.78 578.762 1226.93 579.126C1232.79 586.754 1243.11 593.429 1251.94 585.891C1252.14 586.27 1252.35 586.65 1252.55 587.037C1251 583.688 1249.96 579.588 1249.26 575.51C1246.76 581.084 1242.54 577.735 1238.95 574.706C1233.9 570.42 1230.13 561.505 1227.92 555.225C1225.27 547.672 1223.85 539.389 1220.81 531.911C1221.3 528.443 1228.21 534.337 1229.08 534.724C1243.42 541.012 1267.22 549.673 1282.79 548.699C1290.48 548.215 1328.21 543.125 1331.53 535.542C1333.76 533.496 1335.09 510.703 1335.74 495.061C1336.08 487.062 1336.24 480.93 1336.25 480.394V480.357C1336.23 462.84 1333.76 446.067 1327.65 424.249C1314.03 375.671 1278.1 324.646 1238.19 293.437C1201.08 264.415 1142 252.583 1108.05 293.161C1102.93 299.286 1098.99 305.454 1096.63 313.365C1090.99 332.273 1094.22 355.751 1103 373.566C1104.22 376.058 1106.43 378.045 1107.02 381.066L1108.83 381.848L1111.3 379.407C1109.68 374.406 1108.74 367.627 1108.48 362.277C1107.51 342.349 1110.72 323.165 1126.59 309.83C1134.99 302.761 1140.23 299.144 1151.2 297.239C1176.53 292.856 1210.09 297.083 1232.11 310.686C1260.41 328.158 1291.05 371.713 1303.99 401.917C1318.31 435.351 1330.7 485.782 1329.38 522.297C1329.34 523.316 1328.9 525.727 1328.53 528.175C1328.07 531.293 1325.66 533.764 1322.56 534.277C1314.43 535.609 1301.82 536.286 1296.76 537.298C1274.97 541.659 1243.33 530.117 1223.5 520.95C1218.28 518.531 1213.69 515.235 1208.44 512.958C1204.48 513.955 1212.36 521.366 1212.73 522.081C1215.38 527.215 1218.49 538.467 1220.15 544.398C1221.78 550.224 1227.25 565.427 1220.65 569.088C1212.01 573.865 1206.34 560.151 1204.58 554.012C1201.44 543.043 1200.55 532.744 1195.92 521.746C1182.9 490.827 1154.34 477.321 1133.62 452.868C1122.9 440.218 1111.49 424.286 1102.48 410.527C1072.93 365.41 1076.26 325.68 1086.84 274.55C1087.57 270.993 1090.04 267.898 1088.98 263.671L1086.13 263.805C1085.7 264.728 1085.53 265.777 1084.87 266.61C1078.28 274.945 1073.72 283.294 1068.46 292.633C1052.32 321.357 1049.2 365.893 1063.01 397.028C1077.48 429.666 1103.82 458.762 1132.82 479.211C1157.4 496.534 1182.63 513.687 1189.37 545.41C1191.02 553.208 1192.68 570.063 1182.61 572.727C1173.16 575.22 1166.35 571.38 1160.41 564.489C1151.13 553.699 1137.18 542.18 1130.39 529.068C1131.81 534.158 1134.65 538.08 1133.04 543.534C1132.71 544.159 1132.25 544.814 1131.72 545.469C1138 557.36 1146.68 569.029 1154.02 578.047C1154.02 578.047 1154.05 578.085 1154.13 578.152C1154.56 578.539 1156.16 580.034 1158.23 582.52C1158.93 583.375 1159.7 584.35 1160.49 585.437C1160.49 585.437 1160.49 585.444 1160.5 585.444C1160.79 585.846 1161 586.307 1161.11 586.791C1162.68 593.287 1166.84 613.922 1156 610.112C1155.42 609.911 1154.8 609.636 1154.13 609.294C1154.13 609.286 1154.13 609.286 1154.13 609.286C1150.76 607.88 1147.38 606.965 1144.8 607.337C1144.77 607.344 1144.74 607.344 1144.71 607.352C1142.27 607.709 1139.8 608.401 1137.38 609.16C1131.96 610.864 1126.73 612.925 1122.26 612.367C1118.74 611.928 1107.63 612.203 1097.73 612.918H1097.72C1089.42 613.513 1081.97 614.414 1080.57 615.448C1079.43 616.289 1078.22 616.11 1076.91 615.552C1074.65 614.614 1072.06 612.583 1068.89 612.687C1066.33 612.769 1063.68 612.642 1061.15 616.11C1061.13 616.133 1061.11 616.162 1061.09 616.192C1060.54 616.966 1059.98 617.918 1059.44 619.087C1059.4 619.176 1059.35 619.273 1059.32 619.37C1057.1 624.683 1055.85 633.151 1055.02 637.326C1054.92 637.861 1054.67 638.308 1054.43 638.747C1054.37 639.037 1054.33 639.283 1054.27 639.565L1055.05 642.974C1055.19 643.078 1055.32 643.152 1055.46 643.189C1055.46 643.189 1055.46 643.182 1055.47 643.174C1055.53 643.063 1056.03 642.17 1056.83 640.845V640.808C1056.83 640.808 1056.83 640.823 1056.85 640.823C1059.41 636.596 1065.11 627.994 1070.04 626.164C1073.09 624.995 1075.95 629.073 1076.11 629.296H1076.12C1077.86 630.703 1080.33 632.258 1082.79 632.384C1083.78 632.429 1086.69 632.585 1090.69 632.734C1090.7 632.742 1090.71 632.734 1090.72 632.734C1101.71 633.166 1120.86 633.657 1130.78 632.213C1131.17 632.161 1131.53 632.102 1131.89 632.042C1131.89 632.042 1131.9 632.04 1131.91 632.035C1134.64 631.305 1137.29 628.612 1138.43 627.339C1138.43 627.332 1138.43 627.324 1138.44 627.324C1138.58 627.109 1138.75 626.908 1138.95 626.722C1138.98 626.684 1139 626.662 1139 626.662H1139.01C1139.2 626.469 1139.42 626.297 1139.68 626.141C1140 625.948 1140.37 625.777 1140.8 625.635L1140.73 625.702C1144.26 624.437 1147.25 627.332 1147.25 627.332C1156.68 632.437 1160.56 632.57 1160.91 632.57H1160.94C1165.73 633.277 1171.01 633.248 1175.33 632.727H1175.35C1176.89 632.437 1178.45 632.117 1180.1 631.864H1180.1C1181 631.625 1181.79 631.358 1182.42 631.06H1182.43C1182.55 631.008 1182.65 630.948 1182.75 630.896C1184.67 629.899 1187.52 628.083 1189.66 626.818C1190.02 627.049 1190.31 627.562 1190.92 628.277C1191.05 628.441 1191.65 629.289 1192.7 630.747C1203.39 645.578 1260.62 722.671 1348.06 766.292C1362.28 773.391 1377.29 779.597 1393.04 784.509C1393.04 784.509 1415.22 790.648 1429.29 788.453C1429.42 788.438 1429.55 788.416 1429.67 788.393C1429.67 788.393 1431 784.851 1428.49 778.34C1427.93 776.874 1425.33 770.578 1421.54 760.972C1416.86 749.095 1410.35 732.159 1403.58 713.019C1397.38 695.525 1390.96 676.199 1385.52 657.209C1382.39 646.322 1379.59 635.547 1377.32 625.3C1376.62 622.607 1375.92 619.913 1375.21 617.241C1375.21 617.241 1375.21 617.236 1375.2 617.226C1371.1 605.871 1371.85 599.553 1373.45 596.13C1386.23 587.349 1385.41 563.016 1385.41 563.016C1385.41 562.726 1385.41 562.435 1385.41 562.138C1385.41 562.138 1396.57 555.88 1399.57 548.594C1400.08 547.396 1400.35 546.169 1400.32 544.941C1400.3 544.442 1400.26 543.817 1400.18 543.088C1399.56 536.956 1396.86 523.182 1393.54 508.902C1392.42 505.628 1391.27 502.264 1390.14 498.67C1387.61 490.611 1386.39 482.031 1382.9 474.27L1372.23 439.013V438.998C1368.89 426.801 1366.15 414.411 1363.17 402.111C1362.96 401.27 1362.78 400.429 1362.59 399.581V399.566C1356.44 375.746 1348.04 343.428 1348.04 342.022C1348.04 341.575 1348.09 340.957 1348.23 340.332C1348.5 338.971 1349.11 337.512 1350.24 337.363C1351 337.259 1352.01 337.758 1353.3 339.268C1356.66 343.182 1357.89 344.976 1358.24 345.512C1358.32 345.631 1358.35 345.69 1358.35 345.69C1358.35 345.69 1358.59 344.723 1358.5 342.58C1358.38 339.603 1357.62 334.335 1354.68 326.201C1352.14 319.154 1347.16 309.547 1344.13 302.046C1341.58 295.736 1340.4 290.907 1343.23 290.334C1343.71 290.237 1344.31 290.267 1345.05 290.43L1349.62 295.677L1354.23 300.975C1354.23 300.975 1353.75 298.229 1352.82 294.895C1351.93 291.695 1350.63 287.967 1348.95 285.616C1347.63 283.763 1339.48 272.668 1329.31 258.514C1320.63 248.893 1311.13 239.643 1303.44 233.176C1302.66 232.521 1301.88 231.882 1301.09 231.256H1301.09V231.242C1300.31 229.85 1251.42 142.153 1238.06 103.54C1230.29 65.7153 1208.18 42.8256 1196.07 32.7723C1192.75 30.0189 1190.19 28.2256 1188.87 27.3475C1188.23 26.9308 1187.89 26.7224 1187.89 26.7224C1147.54 1.24309 1102.39 -6.45874 1057.58 5.52933C1057.56 5.53678 1057.54 5.53678 1057.52 5.54422C1044.23 9.42118 1032.15 14.8906 1021.81 21.2307C1021.8 21.2307 1021.8 21.2381 1021.8 21.2381C932.336 69.2648 990.721 202.927 990.721 202.927C991.904 206.759 993.169 210.666 994.524 214.647C994.524 214.647 999.725 231.204 1001.96 234.359L1000.4 235.87L990.394 245.529Z" fill="#4C171C"/>
<path d="M1123.35 521.345C1124.19 528.965 1127.39 537.27 1131.73 545.47C1132.26 544.815 1132.72 544.161 1133.05 543.536C1134.66 538.081 1131.82 534.159 1130.4 529.069C1128.96 526.294 1127.84 523.444 1127.16 520.519C1126.38 517.2 1127.33 512.044 1124.77 509.506C1124.02 508.769 1123.73 507.973 1122.88 509.149C1121.92 510.898 1123.07 518.763 1123.35 521.345Z" fill="#4C171C"/>
<path d="M1000.24 186.11C1003.09 191.513 1005.51 196.826 1008.76 202.147C1023.53 226.301 1033.72 243.67 1066.33 243.617C1070.64 241.824 1080.68 245.686 1080.77 239.16C1075.42 235.841 1069.6 236.005 1064.13 234.591C1042.69 229.04 1024.29 215.474 1013.38 196.045C1005.67 186.319 1000.44 175.075 994.364 164.091L991.521 163.965C990.241 171.696 996.67 179.346 1000.24 186.11Z" fill="#4C171C"/>
<path d="M986.44 106.179C986.551 107.258 987.094 111.634 988.181 111.864C993.152 109.952 990.696 103.188 990.748 99.6307C990.956 85.8418 999.574 64.1203 1008.89 54.0745C1023.12 38.7229 1051.83 33.3725 1071.13 40.8139C1074.52 42.1162 1082.31 47.5633 1084.88 47.1689C1088.23 46.648 1086.57 42.7115 1084.68 41.2083C1080.36 39.3777 1076.1 37.629 1071.74 35.8877C1055.82 29.5402 1037.94 27.6427 1021.56 34.779C1000.73 43.8574 990.733 62.6842 987.898 84.8074C987.273 89.6741 986.008 101.729 986.44 106.179Z" fill="#4C171C"/>
<path d="M1247.86 557.085C1247.86 557.591 1247.73 566.498 1249.27 575.51C1249.97 579.588 1251.01 583.688 1252.56 587.037C1252.94 587.751 1253.32 588.473 1253.71 589.21C1255.37 592.394 1257.14 595.691 1259.11 598.474C1261.59 601.949 1266.52 607.166 1270.4 608.758C1271.66 609.272 1279.89 611.556 1280.93 611.571C1281.68 611.586 1286.55 609.651 1287.47 609.115C1290.61 607.3 1293.23 603.14 1297.05 602.247C1298.72 602.158 1304.11 607.225 1306.37 608.505C1307.16 608.959 1312.25 611.534 1312.59 611.586C1317.8 612.3 1329.64 608.111 1332.37 603.408C1332.72 602.805 1335.14 597.611 1335.19 597.276C1337.34 582.84 1333.16 565.062 1327.9 551.251C1326.45 547.434 1326.61 547.783 1325.24 544.68C1324.98 544.092 1324.4 543.713 1323.76 543.713H1323.68C1322.58 543.713 1321.74 544.718 1321.96 545.789C1322.46 548.141 1323.79 551.735 1324.11 553.558C1326.15 565.04 1325.27 590.832 1315.98 598.935C1311.92 602.485 1309.46 602.225 1305.5 598.935C1304.69 598.258 1299.96 592.722 1299.66 592C1297.79 587.587 1296.91 565.702 1294.75 565.062C1291.51 564.087 1292.77 567.607 1292.54 568.79C1290.96 577.162 1291.08 594.322 1279.79 595.512C1277.35 595.773 1275.75 595.334 1273.55 594.441C1266.65 591.65 1261.69 584.127 1258.74 577.847C1254.36 568.523 1252.82 558.692 1250.42 548.743C1248.91 548.431 1246.83 548.505 1246.8 550.47C1246.76 552.643 1247.24 554.838 1247.86 557.063V557.085Z" fill="#4C171C"/>
<path d="M1252.55 587.037C1252.91 587.804 1253.29 588.533 1253.7 589.21C1253.31 588.473 1252.93 587.751 1252.55 587.037Z" fill="#4C171C"/>
<path d="M1189.6 346.516C1190.79 346.538 1191.9 346.538 1192.14 346.479C1192.54 346.39 1194.81 344.767 1195.22 344.373C1195.6 344.001 1195.95 343.54 1196.27 343.041C1195.11 344.455 1192.95 346.308 1189.6 346.516Z" fill="#4C171C"/>
<path d="M1182.24 344.664C1183.63 345.497 1185.13 346.19 1186.34 346.368C1186.54 346.398 1187.03 346.428 1187.65 346.45C1186.07 346.264 1184.27 345.713 1182.24 344.664Z" fill="#4C171C"/>
<path d="M1142.37 320.201C1142.62 321.332 1143.15 322.404 1143.76 323.475C1143.82 323.751 1144.89 328.372 1146.84 332.837C1147.72 334.853 1148.79 336.848 1150.01 338.38C1150.3 338.7 1150.59 339.028 1150.89 339.355C1152.15 340.792 1153.48 342.272 1154.86 343.456C1156.59 344.936 1159.81 347.005 1162.02 347.332C1171.17 348.032 1173.04 339.504 1173.43 336.163C1173.72 336.609 1174.01 337.026 1174.33 337.413C1174.62 337.733 1174.9 338.053 1175.2 338.388C1176.47 339.824 1177.8 341.305 1179.18 342.488C1179.96 343.165 1181.05 343.962 1182.23 344.661C1184.26 345.71 1186.06 346.261 1187.64 346.447C1188.21 346.477 1188.9 346.499 1189.55 346.514C1189.57 346.521 1189.58 346.514 1189.59 346.514C1192.94 346.306 1195.09 344.453 1196.26 343.039C1196.27 343.031 1196.29 343.024 1196.29 343.009C1196.64 342.503 1196.98 341.952 1197.35 341.439C1197.36 341.431 1197.36 341.424 1197.36 341.424L1199.17 338.581L1201.55 340.226C1201.55 340.226 1201.56 340.226 1201.56 340.233C1202.19 340.494 1202.86 340.806 1203.46 341.074C1206.51 341.915 1210.74 341.126 1214.11 339.809C1214.99 339.162 1215.8 338.447 1216.44 337.726C1218.22 334.853 1218.15 330.411 1218.15 330.411C1216.99 323.133 1212.88 315.268 1208.73 309.277C1207.49 307.484 1207.61 307.648 1206.51 306.219C1206.3 305.943 1205.95 305.824 1205.62 305.906H1205.58C1205.01 306.055 1204.71 306.68 1204.95 307.209C1205.51 308.362 1206.66 310.051 1207.06 310.952C1209.36 316.116 1211.91 327.732 1209.51 333.834C1209.28 334.437 1209 334.98 1208.65 335.463C1207 337.815 1205.7 337.994 1203.24 336.803C1203.15 336.758 1202.98 336.662 1202.76 336.513C1201.72 335.828 1199.53 334.236 1199.32 333.96C1197.79 331.914 1194.54 320.707 1193.35 320.655C1191.54 320.566 1192.65 322.225 1192.68 322.865C1192.93 327.397 1195.18 336.26 1189.5 338.314C1188.27 338.76 1187.39 338.738 1186.13 338.559C1182.2 337.994 1178.68 334.742 1176.35 331.869C1172.89 327.605 1170.84 322.716 1168.33 317.872C1167.5 317.909 1166.44 318.207 1166.68 319.234C1166.93 320.32 1167.42 321.369 1168.01 322.404C1168.05 322.895 1168.35 323.498 1168.37 323.833C1168.61 328.364 1170.87 337.227 1165.18 339.281C1163.95 339.727 1163.07 339.705 1161.82 339.526C1157.89 338.968 1154.36 335.709 1152.04 332.837C1148.58 328.573 1146.52 323.684 1144.01 318.847C1143.19 318.877 1142.13 319.182 1142.37 320.201Z" fill="#4C171C"/>
<path d="M1187.64 346.449C1188.32 346.539 1188.96 346.553 1189.55 346.516C1188.9 346.501 1188.22 346.479 1187.64 346.449Z" fill="#4C171C"/>
<path d="M1013.48 30.3475C1015.4 29.1345 1017.09 28.249 1018.43 27.609C1018.53 27.5644 1018.63 27.5197 1018.72 27.4751C1018.81 27.4304 1018.9 27.3932 1018.99 27.3486C1019.34 27.1923 1019.67 27.0509 1019.97 26.9244C1020.2 26.8351 1020.43 26.7384 1020.68 26.6417C1021 26.5226 1021.33 26.4035 1021.68 26.277C1021.71 26.2696 1021.73 26.2621 1021.74 26.2547C1021.79 26.2398 1021.81 26.2324 1021.81 26.2324C1026.25 24.6697 1032.39 23.1665 1035.88 22.668C1052.1 20.376 1074.33 26.8426 1088.4 34.5072C1089.44 35.0728 1092.1 38.9795 1092.4 38.9944C1097.54 36.5982 1102.39 33.5473 1107.42 30.9577C1120.83 24.0669 1133.89 19.2449 1149.67 20.3016C1156.94 20.7853 1173.24 25.0938 1184.22 29.6108C1184.22 29.6108 1184.22 29.6133 1184.23 29.6182C1184.23 29.6182 1184.26 29.6257 1184.27 29.6257C1186.65 30.6079 1188.77 31.5976 1190.5 32.5501C1191.51 33.1082 1192.38 33.6589 1193.1 34.1872C1193.21 34.2691 1193.37 34.4477 1193.54 34.6784C1194.4 35.3406 1195.25 36.0476 1196.08 36.7992C1216.63 55.1719 1232.05 98.6743 1232.05 98.6743C1232.05 98.6743 1263.04 188.566 1288.8 222.529L1288.84 222.559C1261.95 205.83 1229.85 200.212 1198.25 209.588C1191.21 211.679 1184.47 215.125 1177.31 216.933L1176.06 219.768C1182.44 219.895 1188.67 218.6 1195.01 218.257C1223.49 216.702 1251.15 218.28 1274.67 235.417C1277.24 237.3 1281.55 240.358 1283.92 242.524C1289.26 247.405 1291.06 256.253 1287.98 262.861C1280.88 278.086 1263.25 266.857 1255.34 258.456C1254.04 257.087 1253.79 253.686 1250.48 254.006C1250.12 256.581 1252.65 258.084 1253.74 260.041C1260.04 271.3 1271.22 287.031 1285.83 286.8C1296.43 286.629 1302.69 279.158 1302.57 268.881C1303.53 267.921 1307.65 271.977 1308.49 272.974C1316.03 281.911 1325.21 301.229 1324.7 312.971C1324.22 323.799 1318.41 332.438 1307.93 335.638C1296.9 338.994 1295.61 334.633 1287.16 332.289C1286.17 332.014 1284.92 331.82 1285.46 333.242C1286.26 335.385 1293.72 343.734 1295.92 345.111C1304.7 350.603 1314.08 351.213 1323.19 346.435C1324.79 345.594 1325.89 343.005 1327.48 344.798C1328.4 345.833 1333.45 358.662 1334.33 361.02C1343.18 384.781 1352.13 408.117 1363.21 431.111C1363.65 432.049 1364.95 434.519 1366.38 437.101C1366.38 437.101 1379.03 473.728 1381.02 479.264C1382.21 483.082 1384.04 486.988 1384.94 490.486C1388.45 504.037 1391.83 521.241 1384.12 533.899C1383.61 534.725 1383.98 535.625 1382.57 535.283C1379.5 531.674 1379.76 526.748 1378.22 522.506C1375.55 515.057 1371.83 507.78 1369.2 500.286C1365.04 488.469 1359.78 464.515 1353.48 454.983C1352.86 454.053 1352.23 453.19 1350.94 453.435L1356.33 472.961C1363.7 488.789 1366.94 506.388 1369.44 523.846C1371.85 540.611 1375.03 560.241 1365.38 575.407C1362.35 580.169 1353.15 587.938 1347.97 589.255C1346.51 589.635 1344.54 588.161 1343.67 590.818L1344.6 602.27C1345.75 604.22 1352.11 603.9 1354.31 603.773C1356.28 603.662 1363.84 602.672 1365.33 602.114L1364.94 627.058V627.043C1361.21 664.257 1378.69 710.282 1396.91 741.945C1403.54 753.472 1413.05 762.922 1419.38 774.538L1417.6 775.617C1412.49 773.653 1406.76 771.912 1401.76 769.836C1367.67 755.697 1325.85 733.231 1298.33 709.188C1265.23 680.293 1228.65 642 1204.09 605.783C1204.09 605.783 1204.08 605.768 1204.07 605.745C1203.63 604.934 1196.57 591.89 1195.94 583.473C1197.62 581.94 1199 580.14 1199.9 578.108C1200.53 576.687 1201.04 570.533 1202.9 572.959C1203.56 573.814 1203.66 575.191 1205.05 576.62C1208.53 580.229 1214.26 583.429 1219.43 582.759C1221.72 582.469 1224.78 578.763 1226.94 579.128C1232.8 586.755 1243.12 593.43 1251.95 585.892C1252.15 586.271 1252.35 586.651 1252.55 587.038C1252.93 587.752 1253.31 588.474 1253.7 589.211C1255.37 592.396 1257.13 595.692 1259.1 598.475C1261.58 601.95 1266.51 607.167 1270.39 608.759C1271.66 609.273 1279.89 611.557 1280.92 611.572C1281.67 611.587 1286.55 609.652 1287.47 609.116C1290.61 607.301 1293.23 603.141 1297.05 602.248C1298.71 602.159 1304.1 607.226 1306.36 608.506C1307.16 608.96 1312.24 611.535 1312.58 611.587C1317.79 612.301 1329.64 608.112 1332.36 603.409C1332.71 602.806 1335.13 597.612 1335.18 597.277C1337.33 582.841 1333.16 565.063 1327.9 551.252C1326.45 547.435 1326.6 547.784 1325.23 544.681C1324.97 544.094 1324.39 543.714 1323.75 543.714H1323.67C1322.58 543.714 1321.74 544.719 1321.96 545.79C1322.45 548.142 1323.78 551.736 1324.1 553.559C1326.14 565.041 1325.26 590.833 1315.98 598.937C1311.91 602.486 1309.45 602.226 1305.5 598.937C1304.69 598.259 1299.96 592.723 1299.65 592.001C1297.78 587.588 1296.9 565.703 1294.75 565.063C1291.5 564.089 1292.77 567.608 1292.54 568.792C1290.95 577.163 1291.08 594.323 1279.79 595.514C1277.35 595.774 1275.75 595.335 1273.55 594.442C1266.64 591.651 1261.68 584.128 1258.74 577.848C1254.35 568.524 1252.81 558.694 1250.41 548.744C1248.9 548.432 1246.82 548.506 1246.79 550.471C1246.76 552.644 1247.23 554.839 1247.86 557.064V557.086C1247.85 557.592 1247.72 566.5 1249.26 575.511C1246.77 581.085 1242.55 577.736 1238.96 574.707C1233.91 570.421 1230.14 561.506 1227.93 555.226C1225.27 547.673 1223.86 539.391 1220.82 531.912C1221.31 528.444 1228.21 534.338 1229.08 534.725C1243.42 541.013 1267.23 549.675 1282.8 548.7C1290.49 548.216 1328.22 543.126 1331.54 535.543C1333.77 533.497 1335.1 510.704 1335.75 495.062C1336.08 490.039 1336.26 485.188 1336.26 480.395V480.358C1336.24 462.841 1333.77 446.068 1327.65 424.25C1314.03 375.673 1278.11 324.647 1238.2 293.438C1201.09 264.416 1142 252.585 1108.06 293.162C1102.94 299.287 1099 305.456 1096.64 313.366C1090.99 332.274 1094.22 355.752 1103 373.567C1104.22 376.06 1106.44 378.046 1107.03 381.068L1108.84 381.849L1111.31 379.408C1109.69 374.408 1108.75 367.628 1108.49 362.278C1107.52 342.35 1110.73 323.166 1126.59 309.831C1135 302.762 1140.23 299.145 1151.21 297.24C1176.54 292.857 1210.09 297.084 1232.12 310.687C1260.42 328.159 1291.06 371.714 1304 401.918C1318.32 435.353 1330.7 485.783 1329.39 522.298C1329.35 523.317 1328.9 525.728 1328.54 528.176C1328.08 531.294 1325.67 533.765 1322.56 534.278C1314.44 535.61 1301.82 536.288 1296.76 537.3C1274.98 541.66 1243.34 530.119 1223.51 520.951C1218.29 518.532 1213.7 515.236 1208.45 512.959C1204.48 513.956 1212.36 521.368 1212.74 522.082C1215.39 527.216 1218.5 538.468 1220.15 544.399C1221.78 550.225 1227.26 565.428 1220.66 569.089C1212.02 573.867 1206.34 560.152 1204.59 554.013C1201.45 543.044 1200.56 532.745 1195.92 521.747C1182.91 490.828 1154.35 477.322 1133.63 452.87C1122.9 440.219 1111.5 424.287 1102.49 410.528C1072.94 365.411 1076.27 325.681 1086.85 274.552C1087.58 270.995 1090.05 267.899 1088.99 263.672L1086.13 263.806C1085.7 264.729 1085.54 265.778 1084.88 266.612C1078.28 274.946 1073.72 283.295 1068.47 292.634C1052.33 321.358 1049.21 365.895 1063.01 397.029C1077.49 429.667 1103.82 458.763 1132.83 479.212C1157.41 496.536 1182.64 513.688 1189.38 545.411C1191.03 553.209 1192.69 570.064 1182.62 572.728C1173.17 575.221 1166.35 571.381 1160.42 564.49C1151.14 553.7 1137.18 542.181 1130.4 529.069C1130.35 528.921 1130.31 528.772 1130.27 528.615C1128.73 522.692 1127.73 517.044 1125.95 511.165C1124.34 506.991 1122.4 498.835 1119.86 495.866C1118.91 494.757 1117.75 495.099 1116.53 495.099C1115.39 499.646 1118.27 502.318 1119.29 506.113C1120.88 512.066 1123.92 526.219 1123.2 531.875C1122.41 538.088 1117.53 536.86 1113.82 533.534C1106.03 526.562 1097.91 511.932 1093.04 502.593C1080.97 479.42 1073.28 454.603 1068.53 428.879C1068.01 427.554 1065.25 429.838 1065.17 430.151C1064.82 437.258 1064.38 444.543 1065.84 451.515L1064.06 452.721L1062.93 452.341C1057.05 444.825 1050.43 437.719 1045.69 429.392C1034.89 410.446 1012.76 362.911 1013.93 341.107C1014.91 322.876 1017.48 298.349 1023.97 281.197C1027.56 271.694 1034.54 261.336 1041.5 254.088C1043.44 252.071 1046.91 252.086 1045.92 248.455C1045.6 248.112 1042.71 248.574 1039.8 249.199C1034.82 246.862 1029.86 244.578 1025.37 241.355C1013.6 232.917 1006.41 221.561 998.326 209.611C998.237 209.477 998.111 209.268 997.962 209C995.796 205.161 994.107 201.06 992.857 196.826C958.455 80.108 995.729 41.5616 1013.48 30.3475ZM1142.37 320.204C1142.62 321.336 1143.15 322.407 1143.76 323.479C1143.82 323.754 1144.89 328.375 1146.84 332.84C1147.73 334.857 1148.79 336.851 1150.02 338.384C1150.3 338.704 1150.59 339.031 1150.89 339.359C1152.15 340.795 1153.49 342.276 1154.86 343.459C1156.59 344.94 1159.81 347.008 1162.02 347.336C1171.17 348.035 1173.04 339.507 1173.43 336.166C1173.72 336.613 1174.02 337.029 1174.33 337.416C1174.62 337.736 1174.9 338.056 1175.2 338.391C1176.47 339.827 1177.81 341.308 1179.18 342.491C1179.96 343.169 1181.06 343.965 1182.23 344.664C1183.62 345.498 1185.13 346.19 1186.33 346.368C1186.53 346.398 1187.03 346.428 1187.64 346.45C1188.32 346.54 1188.96 346.554 1189.56 346.517C1189.57 346.525 1189.58 346.517 1189.59 346.517C1190.78 346.54 1191.89 346.54 1192.14 346.48C1192.53 346.391 1194.8 344.768 1195.21 344.374C1195.6 344.002 1195.94 343.541 1196.27 343.042C1196.27 343.035 1196.29 343.027 1196.3 343.012C1196.65 342.506 1196.98 341.956 1197.35 341.442C1197.36 341.435 1197.36 341.427 1197.36 341.427L1199.17 338.585L1201.56 340.229C1201.56 340.229 1201.57 340.229 1201.57 340.237C1202.19 340.497 1202.86 340.81 1203.46 341.078C1206.51 341.918 1210.74 341.13 1214.11 339.812C1215 339.165 1215.81 338.451 1216.45 337.729C1218.22 334.857 1218.15 330.414 1218.15 330.414C1216.99 323.136 1212.88 315.271 1208.73 309.28C1207.5 307.487 1207.62 307.651 1206.51 306.222C1206.31 305.947 1205.96 305.828 1205.62 305.91H1205.58C1205.02 306.058 1204.71 306.683 1204.96 307.212C1205.52 308.365 1206.66 310.054 1207.06 310.955C1209.36 316.119 1211.92 327.735 1209.51 333.837C1209.28 334.44 1209 334.983 1208.66 335.467C1207.01 337.818 1205.7 337.997 1203.24 336.806C1203.15 336.762 1202.99 336.665 1202.76 336.516C1201.72 335.831 1199.53 334.239 1199.33 333.964C1197.79 331.917 1194.55 320.71 1193.35 320.658C1191.54 320.569 1192.65 322.229 1192.68 322.868C1192.93 327.4 1195.19 336.263 1189.5 338.317C1188.28 338.763 1187.39 338.741 1186.13 338.562C1182.2 337.997 1178.68 334.745 1176.35 331.873C1172.89 327.609 1170.85 322.72 1168.33 317.875C1167.51 317.913 1166.44 318.21 1166.68 319.237C1166.93 320.324 1167.42 321.373 1168.01 322.407C1168.05 322.898 1168.35 323.501 1168.37 323.836C1168.62 328.368 1170.88 337.23 1165.18 339.284C1163.96 339.731 1163.07 339.708 1161.82 339.53C1157.89 338.972 1154.36 335.712 1152.04 332.84C1148.58 328.576 1146.53 323.687 1144.01 318.85C1143.2 318.88 1142.13 319.185 1142.37 320.204ZM1214.85 133.351C1218.84 135.851 1220.27 126.379 1220.62 124.057C1223.8 102.402 1220.75 82.1916 1209.79 63.6774C1193.33 35.8615 1164.99 21.4848 1131.87 27.8695C1126.49 28.9038 1113.06 33.8747 1109.27 37.64C1109.07 37.841 1106.28 42.1644 1106.26 42.4472C1106.18 43.2657 1106.51 45.5651 1107.32 45.6916C1115.53 44.0917 1123.27 40.4529 1131.77 40.3859C1149.14 40.2371 1162.6 45.2898 1177 54.5915C1196.22 67.0112 1209.63 92.5277 1213.17 114.569C1213.66 117.553 1213.94 132.778 1214.85 133.351ZM1119.51 160.974C1122.82 161.576 1124.96 161.8 1125.83 158.034C1126.67 154.462 1127.86 146.366 1128.16 142.638C1128.28 141.328 1127.14 139.022 1127.78 138.009C1132.88 135.219 1134.99 139.699 1138.08 141.284C1146.92 145.808 1157.6 142.936 1164.83 136.737C1170.48 131.908 1173.26 124.116 1180.54 121.177L1180.14 119.302C1169.3 121.542 1159.08 115.752 1149.64 111.384C1145.98 113.884 1141.19 113.111 1137.42 115.276C1134.96 116.69 1132.76 120.425 1129.93 121.549C1130.22 118.587 1131.3 114.777 1133.01 112.344C1133.95 110.997 1138.55 107.686 1138.79 106.964C1139.85 103.772 1134.88 104.144 1133.13 105.401C1125.6 110.826 1125.28 121.757 1123.46 129.593C1122.29 134.661 1116.95 136.052 1117.34 141.574L1123.22 141.648L1119.51 160.974ZM1098.67 245.069C1100.97 245.084 1101.94 241.259 1103.38 240.113C1113.03 232.463 1130.6 229.434 1142 224.925C1159.95 217.826 1187.23 198.381 1199.46 183.29C1204.54 177.025 1208.32 171.912 1208.76 163.481C1208.9 160.78 1205.96 160.088 1204.28 161.308C1203.53 161.859 1203.66 163.712 1203.15 164.635C1202.22 166.339 1200.7 168.817 1199.62 170.417C1189.29 185.619 1168.29 202.764 1152 211.709C1140.14 218.22 1127.2 222.03 1115.28 227.827C1108.72 231.027 1097.95 236.578 1098.67 245.069ZM1086.15 224.516C1086.72 225.275 1090.5 229.226 1091.22 228.698C1091.96 223.578 1093.84 219.143 1096.03 214.529C1098.71 208.904 1103.28 203.174 1105.31 199.111C1105.79 198.151 1105.71 196.93 1106.49 195.948C1108.39 193.53 1112.6 192.719 1111.32 188.522C1106.66 187.219 1096.68 199.014 1093.82 198.754C1092.26 198.612 1091.31 192.525 1086.74 194.832C1085.93 195.241 1083.85 199.572 1081.54 198.582C1078.5 197.288 1074.4 187.085 1070.74 187.018C1067.64 187.74 1068.93 190.754 1069.95 192.704C1075.31 202.965 1078.74 214.678 1086.15 224.516ZM1000.25 186.111C1003.1 191.513 1005.51 196.826 1008.77 202.147C1023.54 226.302 1033.73 243.67 1066.33 243.618C1070.64 241.824 1080.69 245.686 1080.77 239.16C1075.43 235.841 1069.6 236.005 1064.13 234.591C1042.69 229.04 1024.29 215.474 1013.38 196.045C1005.68 186.319 1000.45 175.075 994.367 164.092L991.525 163.965C990.245 171.697 996.674 179.346 1000.25 186.111ZM1054.02 111.868C1049.37 110.96 1043.53 110.707 1038.78 111.139C1034.28 111.548 1034.23 114.294 1027.65 113.319C1025.09 112.939 1019.75 109.464 1018.31 113.728C1018.52 114.621 1024.21 117.628 1025.38 118.565C1032.77 124.578 1042.28 136.477 1052.17 137.191C1055.89 137.459 1057.25 135.338 1060.65 135.762C1061.58 136.551 1061.13 143.516 1060.71 144.818C1060.45 145.644 1059.09 145.503 1058.64 146.597C1058.18 147.706 1058.35 149.506 1057.8 150.995C1056.99 153.116 1053.65 156.427 1056.78 157.856C1062.17 160.319 1063.79 155.608 1065.36 151.114C1068.76 141.351 1069.15 128.551 1065.22 118.9C1061.6 109.993 1054.98 105.669 1048.29 99.7384C1045.47 97.2456 1043.88 92.6319 1039.13 94.016L1039.26 96.8735C1040.41 97.3274 1041.53 97.6251 1042.49 98.4734C1044.63 100.356 1048.41 104.144 1050.32 106.272C1050.92 106.957 1054.61 111.295 1054.02 111.868ZM988.176 111.868C993.147 109.955 990.691 103.191 990.744 99.6342C990.952 85.8454 999.569 64.1239 1008.89 54.0781C1023.11 38.7265 1051.82 33.3761 1071.13 40.8175C1074.51 42.1197 1082.3 47.5668 1084.88 47.1724C1088.23 46.6516 1086.57 42.7151 1084.68 41.2119C1080.36 39.3813 1076.1 37.6326 1071.74 35.8913C1055.82 29.5438 1037.94 27.6462 1021.56 34.7825C1000.73 43.861 990.729 62.6877 987.894 84.811C987.268 89.6777 986.003 101.733 986.435 106.183C986.547 107.262 987.09 111.637 988.176 111.868Z" fill="#C6AB8B"/>
<path d="M1266.79 604.635C1266.69 605.788 1266.87 606.971 1267.12 608.177C1267.1 608.459 1266.71 613.185 1267.22 618.029C1267.45 620.217 1267.86 639.073 1268.56 640.904C1268.73 641.298 1268.91 641.693 1269.09 642.094C1269.87 643.851 1270.69 645.666 1271.64 647.207C1272.84 649.141 1275.28 652.088 1277.28 653.078C1285.78 656.523 1290.16 648.97 1291.54 645.904C1291.69 646.418 1291.84 646.909 1292.02 647.37C1292.2 647.765 1292.37 648.152 1292.56 648.561C1293.33 650.317 1294.15 652.133 1295.1 653.673C1295.64 654.559 1296.44 655.645 1297.35 656.672C1298.96 658.287 1300.51 659.359 1301.96 660.021C1302.5 660.222 1303.14 660.452 1303.76 660.668C1303.78 660.683 1303.79 660.676 1303.8 660.683C1307.05 661.502 1309.67 660.393 1311.21 659.403C1311.22 659.403 1311.23 659.403 1311.25 659.381C1311.73 659.001 1312.22 658.585 1312.73 658.205C1312.74 658.205 1312.74 658.19 1312.74 658.19L1315.33 656.032L1317.11 658.324C1317.11 658.324 1317.11 658.324 1317.11 658.332C1317.63 658.771 1318.17 659.269 1318.67 659.708C1321.32 661.435 1325.59 661.97 1329.2 661.74C1330.24 661.39 1331.23 660.958 1332.05 660.467C1334.61 658.272 1335.9 654.016 1335.9 654.016C1337.01 646.73 1335.49 637.987 1333.35 631.022C1332.72 628.938 1332.78 629.132 1332.17 627.435C1332.05 627.108 1331.76 626.892 1331.41 626.869H1331.37C1330.79 626.825 1330.31 627.331 1330.38 627.911C1330.56 629.176 1331.14 631.141 1331.25 632.116C1331.88 637.734 1330.77 649.581 1326.63 654.663C1326.23 655.169 1325.79 655.601 1325.32 655.958C1323.03 657.699 1321.73 657.468 1319.75 655.586C1319.68 655.519 1319.55 655.377 1319.39 655.162C1318.61 654.194 1317 652.014 1316.89 651.686C1316.05 649.268 1316.36 637.607 1315.24 637.198C1313.54 636.566 1314.09 638.478 1313.93 639.103C1312.79 643.501 1312.25 652.624 1306.2 652.855C1304.9 652.907 1304.06 652.617 1302.91 652.066C1299.34 650.332 1296.98 646.165 1295.63 642.72C1293.63 637.607 1293.17 632.324 1292.24 626.944C1291.44 626.728 1290.33 626.691 1290.25 627.74C1290.16 628.849 1290.31 630.002 1290.55 631.163C1290.44 631.639 1290.55 632.309 1290.46 632.636C1289.31 637.027 1288.78 646.157 1282.73 646.388C1281.43 646.44 1280.5 646.314 1279.45 645.599C1268.16 637.92 1270.77 622.293 1269.96 618.996C1268.64 613.668 1269.7 609.233 1268.77 603.861C1267.98 603.637 1266.88 603.608 1266.79 604.649V604.635Z" fill="#4C171C"/>
<path d="M1288.46 689.044C1287.98 691.857 1306.65 705.63 1309.61 707.945C1319.44 715.617 1330.08 723.81 1340.59 730.537C1344.5 733.037 1353.62 739.05 1357.4 740.516C1359.73 741.416 1369.85 743.574 1372.04 743.403C1375.6 743.12 1382.47 738.321 1382.96 734.377C1384.09 725.306 1378.26 710.289 1374.74 701.597C1372.38 695.756 1368.62 687.101 1365.64 681.684C1365.2 680.873 1364.7 680.196 1363.94 679.653C1360.03 678.834 1364.01 689.885 1363.96 691.499C1363.96 691.499 1384.67 744.281 1337.51 716.502C1328.35 712.878 1308.84 699.328 1299.67 693.33C1296.54 691.283 1291.24 684.237 1288.46 689.044Z" fill="#4C171C"/>
<path d="M1043.14 634.5C1043.79 634.74 1044.49 634.87 1045.26 634.9C1046.06 634.93 1046.75 634.91 1047.39 634.79C1045.97 634.72 1044.56 634.62 1043.14 634.5Z" fill="black"/>
<path d="M1342 604.5C1343.96 611.2 1345.12 615.06 1346 619.5C1346.14 620.22 1346.67 625.41 1347 626C1347.07 626.39 1347.42 627.62 1347.5 628L1349.5 630.5C1349.32 630.64 1350.87 630.569 1350.68 630.619C1350.68 630.619 1350.68 630.609 1350.67 630.599C1350.59 630.449 1347.73 625.78 1346.65 624L1347.75 625.71L1348.84 627.419C1348.84 627.419 1348.83 627.439 1348.82 627.439C1345.38 621.759 1337.71 610.199 1331.09 607.739H1331.08C1326.98 606.169 1323.13 611.649 1322.92 611.949C1320.58 613.839 1317.26 615.929 1313.95 616.099C1312.62 616.159 1308.71 616.369 1303.34 616.569C1303.33 616.579 1303.31 616.569 1303.3 616.569C1288.53 617.149 1277.84 616.94 1264.5 615C1261.5 609 1248.45 615.719 1247.97 615.639C1247.97 615.639 1247.96 615.636 1247.95 615.629C1247.2 615.429 1246.46 615.119 1245.74 614.739C1214 618.279 1184.13 621.629 1158.38 624.519C1141.25 626.459 1125.94 628.179 1113.13 629.629C1090.44 632.189 1075.55 633.869 1072.14 634.219C1068.39 634.609 1064.62 634.859 1060.81 634.969L1055.5 643.5C1054.12 638.5 1058.5 634.789 1047.4 634.789C1046.76 634.909 1046.07 634.929 1045.27 634.899C1044.5 634.869 1043.8 634.739 1043.15 634.499H1043.14C1037.72 634.059 1032.31 633.329 1026.93 632.329C1019 630.839 1011.17 628.739 1003.59 626.019C1002.67 625.689 1001.74 625.349 1000.83 624.999C993.659 622.269 986.739 618.969 980.189 615.089C979.289 614.559 978.389 614.019 977.509 613.469C976.919 613.099 976.329 612.719 975.739 612.339C961.789 603.299 964.419 592.149 942.679 589.579C940.059 589.269 937.289 589.389 934.499 589.559C930.559 589.789 926.599 590.139 922.999 589.529C922.889 589.519 922.789 589.499 922.689 589.479C916.809 588.409 913.389 582.469 908.649 581.189C901.659 579.299 894.199 580.399 885.389 577.639C880.719 576.179 877.559 574.519 875.519 572.679L873.559 572.699C873.349 573.089 872.959 573.499 872.359 573.949L784.669 580.299C774.279 566.089 753.439 557.569 742.759 546.159C732.389 535.079 723.269 522.569 711.599 510.339C708.589 507.189 708.069 502.309 704.809 499.269C701.229 495.929 691.159 492.119 685.959 491.319L699.139 500.479L722.709 534.909C722.319 542.119 700.839 534.949 696.479 534.369C694.049 534.049 688.789 531.899 689.289 535.979C700.189 539.479 718.489 540.259 728.079 545.209C734.149 548.349 768.519 578.349 772.109 583.969C775.279 588.919 771.069 592.839 771.859 594.019C774.769 598.389 816.259 588.599 824.639 587.639C852.909 584.419 883.079 581.369 908.059 597.409C895.409 606.159 869.669 592.539 858.139 596.579C856.839 597.029 848.089 613.359 842.259 618.659C828.489 631.179 822.209 633.559 808.689 618.629C797.949 618.779 820.689 631.099 810.939 629.799C801.309 628.509 779.629 622.579 770.139 619.239C747.819 611.399 695.089 566.779 674.829 549.339C660.229 536.759 649.469 520.749 635.729 508.069C631.419 504.089 610.049 490.159 609.229 488.739C607.019 484.869 613.339 477.849 612.309 473.259C611.199 468.289 602.609 462.829 599.519 457.209C592.039 443.619 595.989 432.369 592.829 421.479C591.469 416.799 584.119 414.279 582.599 409.389C580.289 401.979 580.579 387.909 579.859 379.729C566.689 386.799 587.139 406.449 575.379 412.189C570.349 414.629 562.949 410.669 556.559 410.899C545.919 411.279 535.269 419.069 524.069 417.659C532.569 408.359 536.049 389.969 543.029 378.589C542.749 378.749 538.289 381.349 535.619 386.439C535.619 386.449 535.609 386.449 535.609 386.459C526.139 404.689 512.919 430.969 495.019 409.899C493.099 407.639 475.639 379.939 475.299 378.099C473.269 366.909 487.349 345.099 487.599 332.179C487.749 324.239 478.659 288.649 475.719 279.629C473.329 272.299 472.599 271.539 466.039 275.909C477.419 290.089 483.409 320.059 481.479 338.309C480.299 349.439 469.899 358.729 472.709 370.799C464.389 372.619 469.589 359.919 468.239 355.179L466.009 366.319L448.179 358.509C451.909 363.349 463.859 368.969 466.009 374.179C468.789 380.919 454.429 374.399 454.879 379.709C467.289 378.459 474.709 386.069 479.289 396.809C481.499 401.979 479.569 406.689 482.719 410.879C491.149 422.109 509.519 425.579 506.199 446.699L471.259 437.929L448.179 442.219C463.929 441.879 480.189 441.759 495.059 447.819C511.859 454.649 524.709 471.459 540.409 478.369C548.949 482.119 558.539 482.509 566.269 485.999C568.319 486.919 586.459 498.329 586.739 499.519C589.689 512.159 569.859 546.189 570.929 511.459C566.259 510.949 569.899 519.229 568.719 520.399C567.919 521.199 559.749 520.159 557.439 519.379C546.309 515.609 541.519 498.779 528.539 498.079C531.129 504.359 542.979 508.089 545.379 513.779C546.539 516.559 543.879 520.169 544.149 520.369C547.489 522.809 576.209 519.449 573.199 535.999C544.939 540.979 519.029 539.739 494.329 524.449C488.099 520.589 479.559 510.919 474.289 508.599C469.309 506.399 456.419 507.529 448.569 505.449C435.919 502.099 398.459 484.859 394.889 471.889C393.099 465.369 400.999 459.899 399.059 457.889C398.769 457.599 394.019 457.969 391.129 455.789C388.449 453.759 387.429 448.919 384.589 446.649C373.889 438.079 359.019 432.529 351.519 419.249C352.009 408.059 348.409 397.199 352.149 386.429C343.959 391.129 348.969 403.939 347.629 412.029C347.109 415.139 341.889 420.209 343.249 422.099C343.429 422.339 346.939 422.589 348.769 424.319C359.069 434.139 385.149 451.699 387.769 463.589C388.409 466.469 387.419 468.049 384.569 466.779C377.529 463.659 359.009 444.139 350.989 437.839C340.739 429.779 328.189 422.869 318.649 414.359C309.979 406.619 303.519 395.049 295.229 388.669C283.789 379.879 272.109 382.029 266.229 366.319C258.529 345.749 258.669 338.919 240.349 322.989C235.379 318.659 216.699 308.539 214.399 305.419C211.419 301.369 211.459 289.619 205.589 284.839L211.509 270.349C205.219 268.149 206.789 276.279 203.679 277.029C197.729 278.459 185.889 251.029 195.889 245.799C182.159 251.539 172.899 233.559 159.949 227.019C156.349 225.199 150.779 223.129 146.879 222.219C144.619 221.689 139.589 219.259 140.089 223.429C169.439 230.199 184.329 248.319 193.639 275.939L186.979 279.239C194.839 279.019 200.559 287.129 199.249 294.879C186.199 284.779 165.679 262.339 149.919 259.369C96.0889 249.239 103.269 231.839 66.4389 215.609C48.9989 207.919 23.1489 209.389 7.19894 196.689L6.11893 203.339C1.31893 204.229 -3.50108 201.799 -8.01108 201.969C-10.8311 202.079 -22.0711 202.509 -22.9011 205.589H18.3989C20.7989 205.589 60.5289 218.669 63.9589 220.319C79.8889 227.979 90.5489 246.159 106.599 253.579C122.449 260.919 143.689 261.159 158.689 270.699C167.789 276.479 175.279 289.299 183.529 294.969C197.439 304.529 227.969 315.889 236.569 331.239C241.619 340.239 242.139 340.459 247.289 347.929C251.079 353.399 258.799 364.709 255.029 370.809C254.609 371.479 244.099 381.139 243.369 381.439C237.939 383.659 205.589 387.099 199.759 385.929C194.519 384.879 181.169 375.399 179.189 370.759C177.479 366.769 178.729 362.279 177.449 359.099C173.759 349.959 166.599 344.799 171.319 332.859C164.299 330.959 166.879 340.239 162.409 343.039C151.399 349.939 136.629 327.289 131.069 322.879C125.489 318.449 104.889 304.969 98.629 303.969C78.689 300.799 58.0789 311.949 37.3889 308.299C33.3889 311.799 51.7589 320.839 54.4589 321.109C61.1389 321.789 67.5589 312.139 69.7389 321.679C73.8189 312.919 82.2089 317.509 86.9689 315.039C89.8589 313.529 89.159 308.919 94.299 308.139C112.909 305.309 124.649 328.219 134.829 336.969C142.009 343.129 157.459 346.379 161.239 350.749C165.639 355.829 164.319 366.989 170.359 375.119C176.159 382.949 197.379 387.969 184.559 396.309C177.079 401.179 155.009 399.029 146.149 397.099C134.149 394.479 120.869 381.319 105.539 381.849C99.6189 382.049 94.0889 385.729 87.6289 386.439C77.5289 387.549 67.3489 385.959 57.4689 384.219V393.109C62.6689 393.249 63.6889 388.639 69.6289 388.519C74.4289 388.429 91.759 390.379 92.059 395.349L102.719 386.969L167.939 407.909C189.099 405.689 212.859 392.559 235.639 391.369C242.479 391.019 247.539 394.219 254.539 392.709C260.009 391.539 264.919 384.219 270.289 384.699C287.569 386.249 309.319 415.599 323.109 427.759C346.059 447.999 372.259 464.719 394.569 485.809C396.299 489.909 389.039 490.749 386.569 491.139C371.509 493.519 361.089 492.579 346.549 491.379C344.099 491.179 338.219 489.749 338.779 493.569C348.659 493.939 359.259 497.279 368.939 498.029C385.359 499.289 404.609 492.959 416.899 505.899C417.879 511.199 414.499 508.569 411.409 509.259C395.279 512.859 375.399 512.439 360.549 520.949C351.979 525.849 345.579 538.159 335.299 540.349C322.069 543.159 321.219 533.539 309.769 529.309C314.089 545.509 295.889 543.179 284.569 547.669C242.659 564.259 210.039 585.519 165.089 561.219L127.779 553.879C144.589 564.369 166.039 564.349 184.029 571.309C189.609 573.469 198.009 576.129 197.029 582.919C226.199 574.449 256.019 567.879 285.189 559.449C300.669 554.979 313.039 544.899 332.059 549.429L296.549 570.809C286.859 585.029 263.709 597.639 253.889 608.659C252.999 609.649 248.809 626.949 244.569 629.319C240.119 631.819 224.319 627.719 220.459 636.449C227.649 634.109 236.709 635.339 243.389 633.739C263.659 628.879 283.679 596.689 299.769 582.959C314.269 570.579 331.589 562.559 347.589 552.509C353.089 551.049 366.039 572.189 368.249 573.479C371.169 575.179 384.049 571.589 381.169 577.279C369.969 582.779 364.999 594.419 356.679 601.919C348.499 609.289 296.239 633.639 283.509 638.139C268.769 643.349 246.409 645.369 234.499 651.639C215.879 661.429 193.079 678.779 173.569 686.709C150.819 695.969 98.1989 687.739 73.4589 681.879C54.9889 677.509 37.5789 663.469 20.4489 661.219C-1.63106 658.329 -29.4911 661.359 -53.0211 658.779C-83.0311 655.489 -118.301 642.539 -147.181 641.789C-169.061 641.219 -191.361 648.759 -215.761 645.349C-223.221 644.309 -228.501 637.949 -235.371 635.739C-242.771 633.349 -252.121 633.449 -260.041 631.379C-264.061 630.329 -271.691 624.789 -273.951 625.369C-276.381 625.999 -276.181 631.099 -279.041 632.009C-282.071 632.979 -306.001 635.869 -309.471 635.689C-316.101 635.339 -323.501 630.399 -330.981 632.029L-329.821 636.449C-332.211 637.169 -349.581 632.009 -346.621 629.799L-339.931 627.559L-368.941 623.099C-367.171 628.989 -360.041 628.059 -356.251 630.509C-350.301 634.359 -351.041 639.029 -338.611 640.739C-307.691 644.999 -278.351 630.729 -244.321 640.219C-235.961 642.559 -230.661 648.319 -223.811 650.959C-199.191 660.449 -176.551 649.609 -153.501 649.679C-145.181 649.709 -138.471 654.999 -130.061 654.359C-135.841 662.589 -150.801 657.789 -160.161 658.839C-167.651 659.669 -175.191 662.639 -182.561 663.219C-203.341 664.859 -231.171 657.959 -251.481 661.549C-253.681 661.939 -257.851 667.279 -261.661 668.969C-278.041 676.269 -285.401 676.599 -303.181 676.779C-311.301 676.859 -314.221 671.169 -319.811 681.099C-299.141 687.439 -307.731 691.159 -315.071 702.669C-316.911 705.549 -316.801 710.269 -318.111 711.849C-322.371 717.019 -345.001 716.349 -351.931 717.109C-354.531 717.399 -364.191 718.109 -364.481 721.309H-328.761C-332.331 726.889 -344.271 735.249 -350.511 736.479C-361.141 738.559 -369.371 731.749 -381.151 732.439C-393.331 733.149 -408.311 740.619 -420.271 743.659C-420.761 747.849 -415.771 745.389 -413.491 744.869C-398.821 741.529 -374.361 728.969 -366.721 748.089L-377.861 748.119L-371.191 751.439C-373.501 755.089 -385.591 759.269 -386.121 762.479C-387.251 769.379 -378.041 783.069 -371.201 786.049C-373.601 776.959 -382.151 768.099 -374.691 759.089C-371.711 755.479 -352.161 742.429 -348.861 745.869L-348.881 777.109C-344.611 752.389 -321.981 723.499 -299.021 714.209C-289.351 710.299 -279.951 710.109 -270.811 706.699C-235.621 693.569 -190.651 667.589 -153.401 672.079C-139.031 673.819 -146.041 697.809 -152.371 706.809C-156.571 712.789 -176.891 733.639 -182.791 736.669C-189.381 740.059 -196.911 738.899 -203.721 741.429L-190.341 743.659C-195.081 751.239 -203.861 757.319 -211.791 761.259C-214.981 762.849 -221.271 763.379 -221.621 763.739C-221.881 764.019 -219.291 768.029 -219.751 771.009C-221.971 785.359 -236.551 801.619 -227.791 822.379L-221.621 837.389C-219.071 830.729 -225.061 824.589 -225.631 820.169C-225.931 817.869 -226.041 799.699 -225.921 796.259C-225.191 775.079 -202.581 762.799 -189.191 750.339L-181.431 757.019C-185.191 741.959 -170.001 736.369 -160.191 728.059L-152.411 745.859C-152.341 742.739 -152.671 739.439 -151.851 736.369C-149.531 727.639 -129.131 678.729 -124.521 674.379C-109.381 660.109 -81.6111 671.279 -64.1711 672.159C-45.3311 673.099 -12.7211 668.589 3.24893 676.179C7.43893 678.169 10.8489 683.539 14.9489 684.649C18.8689 685.709 24.6189 682.939 29.5589 683.149C35.6089 683.409 70.1689 696.779 75.2789 700.179C78.6589 702.419 79.4989 707.859 81.0989 708.009C83.5489 708.229 90.819 704.479 94.879 704.029C101.679 703.269 148.979 707.969 151.119 710.249C152.169 711.359 150.699 718.669 151.249 721.319C163.019 723.999 165.169 712.009 171.889 707.119C180.689 700.709 196.729 696.899 207.099 691.219C244.009 670.959 252.169 655.329 297.599 654.059C301.909 653.939 363.569 615.889 371.639 610.179C376.909 606.439 396.519 588.389 398.389 587.819C406.769 585.289 417.739 589.859 426.989 589.759C437.499 589.659 445.639 584.579 456.529 589.049C461.299 591.009 464.149 596.959 468.449 599.449C477.659 604.779 502.479 611.239 505.079 622.799C506.379 628.589 500.409 637.139 500.129 642.399C499.929 646.339 502.849 649.589 502.949 653.179C503.179 662.089 489.059 691.829 482.549 698.769C473.839 708.069 455.929 712.239 451.519 716.849C446.839 721.749 449.389 733.219 441.349 737.919C428.279 745.579 425.759 736.549 417.009 733.489C402.749 728.509 410.859 738.119 406.599 741.649C400.849 746.409 385.049 746.139 377.369 749.859C371.189 752.849 362.279 763.109 355.099 767.779C342.879 775.739 306.189 797.759 293.589 800.239C285.399 801.849 275.939 797.969 268.059 798.069C243.449 798.379 220.419 802.119 195.899 795.009C197.869 799.099 208.899 801.039 212.869 801.439C224.699 802.629 284.369 801.419 289.649 808.399C291.759 811.189 287.529 813.349 285.949 814.719C285.149 815.419 284.309 816.069 283.439 816.669L285.249 817.249C286.699 816.919 288.369 816.649 289.359 816.009C312.429 801.089 377.989 759.589 401.179 753.579C405.609 752.429 432.609 747.149 432.499 753.679C432.469 755.289 417.279 772.019 414.539 780.339C413.179 784.469 408.429 799.159 416.899 797.199C417.239 793.009 415.859 788.419 417.529 784.369C421.219 775.449 447.769 754.329 454.859 744.749C459.709 738.189 462.899 726.039 467.229 721.399C473.119 715.099 488.589 713.299 498.449 701.269C514.719 681.389 511.319 646.389 546.999 652.639C554.989 654.039 563.589 660.569 572.289 660.829C587.049 661.259 609.499 654.999 625.559 654.239C654.709 652.859 675.009 659.429 701.469 661.099C715.519 661.989 728.139 657.669 741.729 658.839C756.309 660.089 767.839 669.089 781.259 672.869C805.909 679.799 835.659 679.989 861.169 681.139C861.949 688.539 852.539 687.979 849.029 692.409C844.369 698.299 843.339 715.539 837.309 718.639C786.109 723.609 712.839 750.379 662.899 735.409C641.509 728.989 636.889 707.699 615.619 705.699L635.759 720.129C640.899 722.869 642.739 735.299 646.319 736.909C652.449 739.669 690.499 745.059 699.359 745.839C709.859 746.759 721.099 745.229 731.689 745.879C733.359 747.389 722.109 767.209 719.189 767.909C717.129 768.399 703.629 762.729 698.759 762.089C692.489 761.259 662.639 762.589 657.369 764.179C655.019 764.889 651.939 767.909 651.329 770.429H694.859C696.459 770.429 711.629 774.019 711.559 776.009C694.529 793.559 667.999 808.179 665.829 835.159C673.179 826.759 676.089 817.229 683.929 808.609C687.349 804.849 719.559 778.079 721.959 777.589C725.279 776.919 741.659 784.069 742.669 787.509C744.459 793.639 735.639 801.139 731.709 805.039C731.359 806.699 734.039 806.559 735.019 806.129C740.899 803.499 748.199 789.949 757.229 785.909C769.859 780.239 815.939 768.359 829.169 768.269C834.809 768.229 837.269 774.139 843.049 770.089C844.429 762.719 847.389 730.439 853.679 728.309C860.249 729.739 872.559 727.109 882.159 726.459C887.129 726.109 891.379 726.299 893.709 727.849C895.809 729.249 900.669 736.269 903.399 741.549C904.679 744.009 905.489 746.099 905.339 747.069C904.989 749.369 901.979 750.729 898.169 751.849H898.159C891.649 753.789 882.849 755.039 881.279 759.239C883.859 759.549 889.709 758.539 895.469 756.869C902.489 754.829 909.369 751.809 910.019 748.989C910.559 746.639 908.129 741.609 905.679 736.819C903.019 731.629 900.329 726.709 901.379 725.789C904.599 726.409 907.699 726.289 910.729 725.679C912.479 725.329 914.209 724.819 915.919 724.179C920.859 722.359 925.649 719.579 930.499 717.019C936.709 713.749 942.999 710.839 949.799 710.769C954.629 710.719 965.419 719.489 968.329 716.849C968.739 716.479 968.459 709.169 971.149 706.229C977.109 699.739 1002.44 697.889 1024.29 696.639C1028.09 696.419 1031.78 696.219 1035.25 696.019C1041.56 695.659 1047.12 695.279 1051.22 694.769H1051.23C1052.3 694.639 1053.26 694.489 1054.12 694.339C1066.01 692.189 1077.57 685.149 1088.86 682.189C1090.67 681.719 1098.77 680.629 1111.66 679.079C1207.54 667.519 1568.65 630.179 1582.3 627.539V580.659C1572.07 579.559 1457.15 591.93 1342.01 604.5H1342ZM46.3089 311.629L84.2489 308.309C76.0589 315.329 54.5089 321.209 46.3089 311.629ZM-251.371 692.659C-267.991 700.349 -286.041 704.139 -304.201 705.669C-304.661 702.249 -302.741 699.369 -300.661 696.959C-296.111 691.709 -243.231 671.839 -235.331 671.199C-233.791 671.079 -226.401 671.869 -226.081 672.209C-221.661 676.819 -248.011 691.109 -251.371 692.659ZM573.329 472.229C567.779 470.689 562.169 472.079 556.969 470.729C544.069 467.369 526.049 443.099 516.219 433.329L520.039 422.579C539.649 420.809 561.329 406.389 579.839 421.069C586.759 426.559 583.449 445.029 588.699 456.859C591.189 462.469 603.399 473.659 601.219 477.959C596.839 486.559 581.609 474.529 573.329 472.229ZM591.069 502.529C597.159 498.289 616.209 523.349 620.019 528.199C607.679 537.229 591.849 537.489 577.649 533.749C582.309 529.929 589.679 503.499 591.069 502.529ZM465.849 561.509C438.869 572.399 432.109 564.829 409.069 565.049C402.389 565.109 395.169 569.869 389.089 569.429C382.219 568.919 355.709 546.569 356.719 541.829C386.399 515.109 439.349 506.609 473.459 529.679C477.369 532.319 491.529 544.489 488.259 549.299C479.419 549.919 472.679 558.749 465.849 561.509ZM622.829 629.199C599.139 632.439 549.399 618.239 527.799 607.059C509.969 597.839 494.529 577.879 472.709 578.399C501.519 550.129 550.009 565.179 586.229 554.099C602.989 577.609 625.279 603.179 651.309 616.409C654.199 620.609 626.039 628.759 622.829 629.199ZM640.329 599.459C628.519 592.359 598.539 569.059 593.319 557.149C591.869 553.829 594.219 554.129 596.019 553.329C599.249 551.879 631.539 553.209 633.109 554.219C633.659 554.579 635.559 561.189 637.899 563.939C645.639 573.019 674.059 592.589 675.569 602.349C678.519 621.339 646.409 603.109 640.329 599.459ZM824.049 759.479C820.759 761.789 796.779 765.089 789.719 767.059C768.479 772.969 753.279 784.229 729.459 772.629C737.669 764.669 741.639 752.049 752.409 747.719C760.829 744.329 829.169 729.709 832.139 732.479C833.239 733.509 825.389 758.539 824.049 759.479ZM877.169 704.919C875.229 707.619 872.709 716.029 871.989 716.479C870.569 717.369 852.879 719.089 854.529 713.559C859.619 696.549 878.249 685.669 892.409 676.659C893.859 688.759 883.349 696.279 877.169 704.919ZM935.329 697.629C931.699 699.699 927.929 701.539 924.059 703.199H924.049C922.339 703.939 920.609 704.639 918.849 705.299C908.449 709.249 897.469 712.009 886.439 714.269C885.839 714.399 885.249 714.519 884.649 714.639C882.529 707.979 887.519 700.289 893.019 694.849C894.819 693.069 896.679 691.519 898.359 690.329C905.639 685.189 909.469 690.709 901.369 676.679C903.609 677.339 906.119 674.429 906.939 674.429C913.499 674.429 921.079 674.059 928.569 673.879C935.949 673.699 943.239 673.699 949.359 674.429C952.129 674.749 956.419 677.179 959.399 677.759C952.449 686.109 944.279 692.549 935.329 697.629ZM973.459 634.159L935.119 633.569L911.629 633.209L832.149 631.989C835.689 624.249 850.069 621.939 854.429 617.449C857.749 614.019 857.349 607.879 859.979 605.139C863.399 601.589 878.809 602.549 884.369 603.239C904.519 605.699 893.259 608.699 914.269 603.609C915.949 603.199 917.589 602.839 919.189 602.549C925.009 601.469 930.219 601.259 934.689 602.759C939.729 604.459 943.829 608.339 946.749 615.639L973.629 632.009L977.259 634.219L973.459 634.159Z" fill="#A7A695"/>
<path d="M875.506 572.68L873.546 572.7C874.596 570.86 871.726 569.74 868.976 569.43C860.036 568.45 850.736 571.57 840.486 568.96C833.666 567.22 826.616 560.91 818.766 560.54L840.046 553.83L858.936 556.08C846.946 543.77 847.996 535.19 856.226 521C857.156 519.39 855.716 516.88 859.806 518.36C866.036 520.62 876.476 531.62 878.076 538.23C881.206 551.19 865.766 563.92 875.506 572.68Z" fill="#1A273A"/>
<path d="M298.561 857.48C286.471 852.59 273.551 845.49 273.991 830.72C270.281 831.61 270.281 837.31 267.371 840.8C258.831 851.05 239.741 852.61 227.141 853.01C232.861 821.4 264.671 829.74 283.431 816.67L285.241 817.25C282.701 817.84 280.831 818.63 284.371 821.96C285.491 823.01 288.701 823.41 290.881 826.08C299.071 836.1 299.491 844.83 298.561 857.48Z" fill="#1A273A"/>
<path d="M296.931 664.691C315.961 669.401 327.091 672.261 338.761 690.031C324.181 687.851 310.221 689.381 298.591 678.891C303.891 696.961 290.381 705.641 277.361 714.571C264.911 700.801 268.171 688.561 280.711 676.681C266.941 684.201 254.801 678.961 240.531 681.101C246.771 674.661 258.511 666.061 267.191 664.251C273.831 662.871 288.381 661.581 295.361 661.311C296.371 661.271 296.251 664.521 296.921 664.691H296.931Z" fill="#1A273A"/>
<path d="M722.766 725.739C702.756 733.769 680.556 735.569 660.266 726.879C677.036 720.279 688.086 711.439 707.126 716.819C705.646 712.709 698.986 713.009 694.836 710.169C683.296 702.249 681.146 687.309 682.596 674.439C694.126 676.699 715.116 685.959 717.846 698.329C719.786 707.129 717.236 716.529 722.766 725.749V725.739Z" fill="#1A273A"/>
<path d="M128.878 205.601C115.658 204.311 103.198 206.951 90.3982 200.561L75.3281 192.221C90.7981 187.631 102.278 185.571 117.728 192.171C104.348 179.151 106.568 164.931 118.848 152.051C124.568 158.581 134.148 164.231 135.508 173.381C137.598 187.501 126.348 191.911 128.878 205.591V205.601Z" fill="#1A273A"/>
<path d="M253.922 538.22C265.412 524.89 276.122 520.06 294.092 522.59L276.912 516.36C264.882 510.2 262.422 499.25 260.622 486.9C274.942 490.24 290.112 492.74 297.592 506.84C301.162 513.57 300.212 521.34 307.462 525.96C293.642 540.71 272.432 538.33 253.922 538.22Z" fill="#1A273A"/>
<path d="M236.096 265.891C239.016 267.771 244.116 274.831 245.446 277.701C261.256 311.611 230.036 326.831 227.126 293.771C225.896 279.711 230.906 277.451 236.086 265.891H236.096Z" fill="#1A273A"/>
<path d="M472.709 303.8C450.099 300.95 432.779 292.83 421.359 272.59C444.229 270.28 464.939 281.99 472.709 303.8Z" fill="#1A273A"/>
<path d="M115.532 765.959C108.702 742.009 128.642 729.459 148.972 723.539C151.322 748.029 131.722 754.069 115.532 765.959Z" fill="#1A273A"/>
<path d="M88.6998 399.84C89.3698 421.12 71.9898 431.62 55.2498 440.01C46.9098 418.17 69.7998 403.21 88.6998 399.84Z" fill="#1A273A"/>
<path d="M55.2175 227.889C35.4275 236.379 12.5175 237.859 -7.3125 229.029C8.8675 216.189 39.8475 213.699 55.2175 227.889Z" fill="#1A273A"/>
<path d="M492.788 236.859C494.648 253.509 492.468 267.209 474.958 272.559C468.928 255.099 475.258 242.379 492.788 236.859Z" fill="#1A273A"/>
<path d="M664.698 837.41C667.218 854.63 657.738 868.53 640.168 870.88C638.638 854.77 649.408 841.14 664.698 837.41Z" fill="#1A273A"/>
<path d="M298.581 408.78C301.591 411.71 298.051 412.7 295.751 413.75C282.391 419.85 258.221 420.03 249.461 406.55C259.521 405.33 269.321 403.26 279.621 404.29C282.091 404.54 297.881 408.11 298.581 408.79V408.78Z" fill="#1A273A"/>
</svg>
